<svg width="257" height="90" viewBox="0 0 257 90" fill="none" xmlns="http://www.w3.org/2000/svg">
<path d="M33 66.5H0V2H33C35 3 39 5.5 39 5.5C39 5.5 55.5 17 39 32.5C58.2 50.5 43 62.6667 33 66.5Z" fill="#2376DD"/>
<path d="M67.4819 67.7031C62.3726 67.7031 58.3882 66.1797 55.5288 63.1328C52.6694 60.0859 51.2397 55.7266 51.2397 50.0547V47.0312C51.2397 41.0312 52.5522 36.4023 55.1772 33.1445C57.8022 29.8867 61.564 28.2578 66.4624 28.2578C71.2437 28.2578 74.8413 29.793 77.2554 32.8633C79.6694 35.9102 80.8999 40.4336 80.9468 46.4336V51.3203H61.1538C61.2944 54.1328 61.9155 56.1953 63.0171 57.5078C64.1187 58.7969 65.8179 59.4414 68.1147 59.4414C71.4429 59.4414 74.2202 58.3047 76.4468 56.0312L80.3491 62.043C79.1304 63.7305 77.3608 65.1016 75.0405 66.1562C72.7202 67.1875 70.2007 67.7031 67.4819 67.7031ZM61.2241 44.3594H71.1733V43.4453C71.1265 41.1719 70.7515 39.4492 70.0483 38.2773C69.3452 37.1055 68.1265 36.5195 66.3921 36.5195C64.6577 36.5195 63.3921 37.1406 62.5952 38.3828C61.8218 39.625 61.3647 41.6172 61.2241 44.3594ZM98.1382 19.6094V28.9609H103.236V36.4492H98.1382V55.3281C98.1382 56.8281 98.3374 57.8594 98.7358 58.4219C99.1577 58.9844 99.9546 59.2656 101.126 59.2656C102.087 59.2656 102.873 59.1836 103.482 59.0195L103.412 66.7539C101.724 67.3867 99.896 67.7031 97.9272 67.7031C91.5054 67.7031 88.2593 64.0234 88.189 56.6641V36.4492H83.7944V28.9609H88.189V19.6094H98.1382ZM126.791 67C126.509 66.4141 126.228 65.4297 125.947 64.0469C124.166 66.4844 121.751 67.7031 118.705 67.7031C115.517 67.7031 112.869 66.6484 110.759 64.5391C108.673 62.4297 107.63 59.6992 107.63 56.3477C107.63 52.3633 108.896 49.2812 111.427 47.1016C113.982 44.9219 117.65 43.8086 122.431 43.7617H125.455V40.7031C125.455 38.9922 125.162 37.7852 124.576 37.082C123.99 36.3789 123.134 36.0273 122.009 36.0273C119.525 36.0273 118.283 37.4805 118.283 40.3867H108.333C108.333 36.8711 109.646 33.9766 112.271 31.7031C114.919 29.4063 118.259 28.2578 122.291 28.2578C126.462 28.2578 129.685 29.3477 131.958 31.5273C134.255 33.6836 135.404 36.7773 135.404 40.8086V58.7031C135.451 61.9844 135.919 64.5508 136.81 66.4023V67H126.791ZM120.919 59.8984C122.021 59.8984 122.958 59.6758 123.732 59.2305C124.505 58.7852 125.08 58.2578 125.455 57.6484V49.7383H123.064C121.376 49.7383 120.041 50.2773 119.056 51.3555C118.095 52.4336 117.615 53.875 117.615 55.6797C117.615 58.4922 118.716 59.8984 120.919 59.8984ZM143.419 61.9375C143.419 60.3438 143.947 59.0312 145.001 58C146.08 56.9688 147.474 56.4531 149.185 56.4531C150.849 56.4531 152.232 56.9688 153.333 58C154.435 59.0078 154.986 60.3203 154.986 61.9375C154.986 63.5781 154.423 64.9023 153.298 65.9102C152.197 66.8945 150.826 67.3867 149.185 67.3867C147.521 67.3867 146.138 66.8828 145.037 65.875C143.958 64.8672 143.419 63.5547 143.419 61.9375ZM181.634 67C181.353 66.4141 181.072 65.4297 180.791 64.0469C179.009 66.4844 176.595 67.7031 173.548 67.7031C170.361 67.7031 167.712 66.6484 165.603 64.5391C163.517 62.4297 162.474 59.6992 162.474 56.3477C162.474 52.3633 163.74 49.2812 166.271 47.1016C168.826 44.9219 172.494 43.8086 177.275 43.7617H180.298V40.7031C180.298 38.9922 180.005 37.7852 179.419 37.082C178.833 36.3789 177.978 36.0273 176.853 36.0273C174.369 36.0273 173.126 37.4805 173.126 40.3867H163.177C163.177 36.8711 164.49 33.9766 167.115 31.7031C169.763 29.4063 173.103 28.2578 177.134 28.2578C181.306 28.2578 184.529 29.3477 186.802 31.5273C189.099 33.6836 190.248 36.7773 190.248 40.8086V58.7031C190.294 61.9844 190.763 64.5508 191.654 66.4023V67H181.634ZM175.763 59.8984C176.865 59.8984 177.802 59.6758 178.576 59.2305C179.349 58.7852 179.923 58.2578 180.298 57.6484V49.7383H177.908C176.22 49.7383 174.884 50.2773 173.9 51.3555C172.939 52.4336 172.458 53.875 172.458 55.6797C172.458 58.4922 173.56 59.8984 175.763 59.8984ZM207.896 67H197.912V28.9609H207.896V67ZM197.455 19.1172C197.455 17.5703 197.947 16.3047 198.931 15.3203C199.916 14.3359 201.228 13.8438 202.869 13.8438C204.509 13.8438 205.822 14.3359 206.806 15.3203C207.791 16.3047 208.283 17.5703 208.283 19.1172C208.283 20.6406 207.791 21.9062 206.806 22.9141C205.845 23.9219 204.533 24.4258 202.869 24.4258C201.205 24.4258 199.88 23.9219 198.896 22.9141C197.935 21.9062 197.455 20.6406 197.455 19.1172Z" fill="#2376DD"/>
</svg>